<?xml version="1.0" encoding="UTF-8" standalone="no"?>
<svg
   height="24px"
   viewBox="0 -960 960 960"
   width="24px"
   fill="#EA3323"
   version="1.1"
   id="svg1"
   sodipodi:docname="RedHeartFilled_MaterialIcons.svg"
   inkscape:version="1.3.2 (091e20e, 2023-11-25, custom)"
   inkscape:export-filename="RedHeartFilled_MaterialIcons.png"
   inkscape:export-xdpi="384"
   inkscape:export-ydpi="384"
   xmlns:inkscape="http://www.inkscape.org/namespaces/inkscape"
   xmlns:sodipodi="http://sodipodi.sourceforge.net/DTD/sodipodi-0.dtd"
   xmlns="http://www.w3.org/2000/svg"
   xmlns:svg="http://www.w3.org/2000/svg">
  <defs
     id="defs1" />
  <sodipodi:namedview
     id="namedview1"
     pagecolor="#ffffff"
     bordercolor="#000000"
     borderopacity="0.25"
     inkscape:showpageshadow="2"
     inkscape:pageopacity="0.0"
     inkscape:pagecheckerboard="0"
     inkscape:deskcolor="#d1d1d1"
     inkscape:zoom="47.375"
     inkscape:cx="11.989446"
     inkscape:cy="12"
     inkscape:window-width="2560"
     inkscape:window-height="1351"
     inkscape:window-x="-9"
     inkscape:window-y="-9"
     inkscape:window-maximized="1"
     inkscape:current-layer="svg1" />
  <path
     d="m 480,-120 -58,-52 c -67.33333,-60.66667 -123,-113 -167,-157 -44,-44 -79,-83.5 -105,-118.5 -26,-35 -44.16667,-67.16667 -54.5,-96.5 -10.333333,-29.33333 -15.5,-59.33333 -15.5,-90 0,-62.66667 21,-115 63,-157 42,-42 94.33333,-63 157,-63 34.66667,0 67.66667,7.33333 99,22 31.33333,14.66667 58.33333,35.33333 81,62 22.66667,-26.66667 49.66667,-47.33333 81,-62 31.33333,-14.66667 64.33333,-22 99,-22 62.66667,0 115,21 157,63 42,42 63,94.33333 63,157 0,30.66667 -5.16667,60.66667 -15.5,90 -10.33333,29.33333 -28.5,61.5 -54.5,96.5 -26,35 -61,74.5 -105,118.5 -44,44 -99.66667,96.33333 -167,157 z"
     id="path1"
     sodipodi:nodetypes="ccssssssscssssssscccc" />
</svg>
