<?xml version="1.0" encoding="UTF-8" standalone="no"?>
<svg
   width="24.021109"
   height="20.791557"
   viewBox="0 0 24.021109 20.791557"
   version="1.1"
   id="svg1"
   sodipodi:docname="bookIcon_whiteBg.svg"
   inkscape:version="1.3.2 (091e20e, 2023-11-25, custom)"
   inkscape:export-filename="bookIcon_whiteBg.png"
   inkscape:export-xdpi="320"
   inkscape:export-ydpi="320"
   xmlns:inkscape="http://www.inkscape.org/namespaces/inkscape"
   xmlns:sodipodi="http://sodipodi.sourceforge.net/DTD/sodipodi-0.dtd"
   xmlns="http://www.w3.org/2000/svg"
   xmlns:svg="http://www.w3.org/2000/svg">
  <defs
     id="defs1" />
  <sodipodi:namedview
     id="namedview1"
     pagecolor="#ffffff"
     bordercolor="#000000"
     borderopacity="0.25"
     inkscape:showpageshadow="2"
     inkscape:pageopacity="0.0"
     inkscape:pagecheckerboard="0"
     inkscape:deskcolor="#d1d1d1"
     inkscape:zoom="47.375"
     inkscape:cx="11.989446"
     inkscape:cy="8.5804749"
     inkscape:window-width="2560"
     inkscape:window-height="1351"
     inkscape:window-x="2551"
     inkscape:window-y="-9"
     inkscape:window-maximized="1"
     inkscape:current-layer="svg1" />
  <rect
     style="fill:#ffffff;stroke:none"
     id="rect1"
     width="24.021109"
     height="20.791557"
     x="0"
     y="0" />
  <path
     d="M 23,4.9577836 V 18.840784 l -1,0.117 V 2.9577836 c -3.895,0.119 -7.505,0.762 -10.002,2.316 -2.496,-1.554 -6.102,-2.197 -9.998,-2.316 V 18.957784 l -1,-0.117 V 4.9577836 H 0 V 19.957784 h 9.057 c 1.479,0 1.641,1 2.941,1 1.304,0 1.461,-1 2.942,-1 H 24 V 4.9577836 Z M 11,18.602784 c -1.946,-0.772 -4.137,-1.269 -7,-1.484 V 5.0677836 c 2.352,0.197 4.996,0.675 7,1.922 z m 9,-1.484 c -2.863,0.215 -5.054,0.712 -7,1.484 V 6.9897836 c 2.004,-1.247 4.648,-1.725 7,-1.922 z"
     id="path1"
     style="fill:#000000" />
</svg>
